<svg width="64" height="64" viewBox="0 0 64 64" fill="none" xmlns="http://www.w3.org/2000/svg">
<path d="M32 59C46.9117 59 59 46.9117 59 32C59 17.0883 46.9117 5 32 5C17.0883 5 5 17.0883 5 32C5 46.9117 17.0883 59 32 59Z" stroke="#06B6D4" stroke-width="4" stroke-linecap="round" stroke-linejoin="round"/>
<path d="M42 32C42 37.5228 37.5228 42 32 42C26.4772 42 22 37.5228 22 32C22 26.4772 26.4772 22 32 22" stroke="#67E8F9" stroke-width="4" stroke-linecap="round" stroke-linejoin="round"/>
<path d="M32 5V11" stroke="#06B6D4" stroke-width="4" stroke-linecap="round" stroke-linejoin="round"/>
<path d="M32 53V59" stroke="#06B6D4" stroke-width="4" stroke-linecap="round" stroke-linejoin="round"/>
<path d="M59 32H53" stroke="#06B6D4" stroke-width="4" stroke-linecap="round" stroke-linejoin="round"/>
<path d="M11 32H5" stroke="#06B6D4" stroke-width="4" stroke-linecap="round" stroke-linejoin="round"/>
<path d="M25 14L28 18" stroke="#67E8F9" stroke-width="4" stroke-linecap="round" stroke-linejoin="round"/>
<path d="M46 40L49 43" stroke="#67E8F9" stroke-width="4" stroke-linecap="round" stroke-linejoin="round"/>
<path d="M15 49L18 46" stroke="#67E8F9" stroke-width="4" stroke-linecap="round" stroke-linejoin="round"/>
<path d="M40 25L43 28" stroke="#67E8F9" stroke-width="4" stroke-linecap="round" stroke-linejoin="round"/>
</svg>
